<svg width="55" height="55" viewBox="0 0 55 55" fill="none" xmlns="http://www.w3.org/2000/svg"><rect width="55" height="55" rx="20" fill="#EB0A1F"/><path d="M49.2813 13.9558C49.2813 13.2482 48.7076 12.6746 48 12.6746L36.4688 12.6746C35.7611 12.6746 35.1875 13.2482 35.1875 13.9558C35.1875 14.6634 35.7611 15.2371 36.4688 15.2371L46.7188 15.2371L46.7188 25.4871C46.7188 26.1947 47.2924 26.7683 48 26.7683C48.7076 26.7683 49.2813 26.1947 49.2813 25.4871L49.2813 13.9558ZM30.0625 31.8933L30.9685 32.7993L48.906 14.8618L48 13.9558L47.094 13.0498L29.1565 30.9873L30.0625 31.8933Z" fill="white"/><line y1="-1.28125" x2="12.8125" y2="-1.28125" transform="matrix(-0.707107 -0.707107 -0.707107 0.707107 30.4639 32.295)" stroke="white" stroke-width="2.5625"/><line x1="6.09402" y1="40.1381" x2="24.0324" y2="22.1997" stroke="white" stroke-width="2.5625"/></svg>