<svg width="14" height="14" viewBox="0 0 14 14" fill="none" xmlns="http://www.w3.org/2000/svg"><g clip-path="url(#clip0_374_1055)"><g clip-path="url(#clip1_374_1055)"><path d="M5.01074 7.88083L8.99491 10.2027M8.98908 3.79717L5.01074 6.11902M12.25 2.9164C12.25 3.88298 11.4665 4.66654 10.5 4.66654C9.5335 4.66654 8.75 3.88298 8.75 2.9164C8.75 1.94982 9.5335 1.16626 10.5 1.16626C11.4665 1.16626 12.25 1.94982 12.25 2.9164ZM5.25 7.00006C5.25 7.96664 4.4665 8.7502 3.5 8.7502C2.5335 8.7502 1.75 7.96664 1.75 7.00006C1.75 6.03348 2.5335 5.24992 3.5 5.24992C4.4665 5.24992 5.25 6.03348 5.25 7.00006ZM12.25 11.0837C12.25 12.0503 11.4665 12.8339 10.5 12.8339C9.5335 12.8339 8.75 12.0503 8.75 11.0837C8.75 10.1171 9.5335 9.33358 10.5 9.33358C11.4665 9.33358 12.25 10.1171 12.25 11.0837Z" stroke="#64748B" stroke-width="2" stroke-linecap="round"/></g></g><defs><clipPath id="clip0_374_1055"><rect width="14" height="14" fill="white"/></clipPath><clipPath id="clip1_374_1055"><rect width="14" height="14" fill="white"/></clipPath></defs></svg>