<svg width="16" height="16" viewBox="0 0 16 16" fill="none" xmlns="http://www.w3.org/2000/svg"><g clip-path="url(#clip0_374_961)"><g clip-path="url(#clip1_374_961)"><path d="M14.6674 7.99996C14.6674 11.6822 11.6824 14.6672 8.00021 14.6672M14.6674 7.99996C14.6674 4.31777 11.6824 1.33276 8.00021 1.33276M14.6674 7.99996H1.33301M8.00021 14.6672C4.31801 14.6672 1.33301 11.6822 1.33301 7.99996M8.00021 14.6672C6.28823 12.8696 5.33333 10.4823 5.33333 7.99996C5.33333 5.51759 6.28823 3.13034 8.00021 1.33276M8.00021 14.6672C9.71219 12.8696 10.6671 10.4823 10.6671 7.99996C10.6671 5.51759 9.71219 3.13034 8.00021 1.33276M8.00021 1.33276C4.31801 1.33276 1.33301 4.31777 1.33301 7.99996" stroke="#0A3EB3" stroke-width="2" stroke-linecap="round"/></g></g><defs><clipPath id="clip0_374_961"><rect width="16" height="16" fill="white"/></clipPath><clipPath id="clip1_374_961"><rect width="16" height="16" fill="white"/></clipPath></defs></svg>